<?xml version="1.0" encoding="utf-8"?>
<!-- Generator: Adobe Illustrator 25.0.0, SVG Export Plug-In . SVG Version: 6.00 Build 0)  -->
<svg version="1.1" id="Layer_1" xmlns="http://www.w3.org/2000/svg" xmlns:xlink="http://www.w3.org/1999/xlink" x="0px" y="0px"
	 viewBox="0 0 130.3 27" style="enable-background:new 0 0 130.3 27;" xml:space="preserve">
<style type="text/css">
	.st0{fill:#FFFFFF;}
</style>
<g>
	<g>
		<path class="st0" d="M56.9,18.5c-2,0-3.7-1.1-3.7-2.6c0-0.8,0.7-1.5,1.5-1.5s1.5,0.7,1.5,1.5c0,1.1-0.9,1.2-0.9,1.7
			c0,0.3,0.3,0.6,0.7,0.6c0.3,0,0.5,0.1,0.8,0.1c0.7,0,1.3-0.6,1.3-1.3c0-2-5-3.5-5-6.3c0-1.6,1.9-2.3,3.3-2.3c1.4,0,2,0.6,2.9,0.5
			c0.2,0,0.4-0.1,0.5-0.2h0.1V12h-0.1c-0.2-1.2-0.8-3-2.7-3.3c-0.7-0.1-1.2,0.3-1.3,1.1c-0.2,2.1,4.5,3.2,4.8,5.9
			C60.7,17.3,58.9,18.5,56.9,18.5z"/>
		<path class="st0" d="M79.9,18.3v0.2c0,0,0,0-0.1,0c0,0-0.1,0-0.2,0s-0.1,0-0.2,0s-0.1,0-0.2,0c-0.2,0-0.4,0-0.6,0s-0.3,0-0.4,0
			c-1.1-0.1-1.6-0.6-1.8-1.6c-0.1,0.4-0.4,0.7-0.7,1.1c-0.3,0.3-0.7,0.4-1.3,0.5c-0.1,0-0.3,0-0.4,0s-0.3,0-0.5,0s-0.4,0-0.6,0
			s-0.3,0-0.5-0.1c-0.2,0-0.3-0.1-0.4-0.1s-0.3-0.1-0.4-0.2c-1.1-0.8-0.8-2.7,0-3.6c0.4-0.5,1.1-0.7,1.7-0.9c0.3-0.1,0.7-0.2,1-0.3
			s0.6-0.2,0.8-0.2c0.5-0.1,0.9-0.3,1.2-0.5v-1.3c0-0.5-0.1-1.1-0.4-1.6c-0.5-0.8-1.6-0.7-2.4-0.4c-0.1,0-0.2,0.1-0.3,0.2
			C73,9.7,73.1,9.9,73.3,10s0.3,0.2,0.4,0.4c0.1,0.1,0.2,0.4,0.2,0.7c0,0.4-0.1,0.7-0.3,0.9c-0.2,0.2-0.5,0.3-0.8,0.3
			S72.2,12.2,72,12s-0.3-0.5-0.3-0.8c0,0,0,0,0-0.1V11c0.2-1.2,1.2-2,2.4-2.3C75,8.5,76,8.5,76.9,8.9c1.1,0.4,1.5,1.3,1.6,2.4
			c0,0.2,0,0.5,0,0.7c0,1,0,2,0,3c0,0.7-0.1,1.4,0,2.1c0,0.5,0.1,1.2,0.8,1.2l0,0c0,0,0,0,0.1,0C79.8,18.3,79.9,18.3,79.9,18.3
			L79.9,18.3z M74.6,14c-0.4,0.3-0.7,0.9-0.9,1.7c0,0.4-0.1,0.7-0.1,0.8c0,0.9,0.3,1.4,0.8,1.6c0.1,0,0.1,0,0.2,0s0.1,0,0.1,0
			c0.1,0,0.3,0,0.4-0.1s0.3-0.1,0.4-0.3c0.1-0.1,0.3-0.2,0.4-0.4c0.1-0.2,0.2-0.3,0.3-0.5c0.1-0.2,0.2-0.4,0.2-0.6
			c0.2-0.2,0.2-0.4,0.2-0.7V13c-0.2,0.2-0.5,0.3-1,0.5c-0.2,0.1-0.4,0.2-0.6,0.2C74.9,13.9,74.7,13.9,74.6,14z"/>
		<path class="st0" d="M109.5,18.3v0.2c0,0,0,0-0.1,0c0,0-0.1,0-0.2,0s-0.1,0-0.2,0s-0.1,0-0.2,0c-0.2,0-0.4,0-0.6,0s-0.3,0-0.4,0
			c-1.1-0.1-1.6-0.7-1.8-1.6c-0.1,0.4-0.4,0.7-0.7,1.1c-0.3,0.3-0.7,0.4-1.3,0.5c-0.1,0-0.3,0-0.4,0s-0.3,0-0.5,0s-0.4,0-0.6,0
			s-0.3,0-0.5-0.1c-0.2,0-0.3-0.1-0.4-0.1s-0.3-0.1-0.4-0.2c-1.1-0.8-0.8-2.7,0-3.6c0.4-0.5,1.1-0.7,1.7-0.9c0.3-0.1,0.7-0.2,1-0.3
			s0.6-0.2,0.8-0.2c0.5-0.1,0.9-0.3,1.2-0.5v-1.3c0-0.5-0.1-1.1-0.4-1.6c-0.5-0.8-1.6-0.7-2.4-0.4c-0.1,0-0.2,0.1-0.3,0.2
			c-0.2,0.2-0.1,0.4,0.1,0.5s0.3,0.2,0.4,0.4c0.1,0.1,0.2,0.4,0.2,0.7c0,0.4-0.1,0.7-0.3,0.9c-0.2,0.2-0.5,0.3-0.8,0.3
			s-0.6-0.1-0.8-0.3c-0.2-0.2-0.3-0.5-0.3-0.8c0,0,0,0,0-0.1V11c0.2-1.2,1.2-2,2.4-2.3c0.9-0.2,1.9-0.2,2.8,0.2
			c1.1,0.4,1.5,1.3,1.6,2.4c0,0.2,0,0.5,0,0.7c0,1,0,2,0,3c0,0.7-0.1,1.4,0,2.1c0,0.5,0.1,1.2,0.8,1.2l0,0c0,0,0,0,0.1,0
			C109.4,18.3,109.4,18.3,109.5,18.3C109.4,18.3,109.4,18.3,109.5,18.3z M104.1,14c-0.4,0.3-0.7,0.9-0.9,1.7c0,0.4-0.1,0.7-0.1,0.8
			c0,0.9,0.3,1.4,0.8,1.6c0.1,0,0.1,0,0.2,0s0.1,0,0.1,0c0.1,0,0.3,0,0.4-0.1s0.3-0.1,0.4-0.3c0.1-0.1,0.3-0.2,0.4-0.4
			c0.1-0.2,0.2-0.3,0.3-0.5c0.1-0.2,0.2-0.4,0.2-0.6c0.1-0.2,0.1-0.4,0.1-0.7V13c-0.2,0.2-0.5,0.3-1,0.5c-0.2,0.1-0.4,0.2-0.6,0.2
			C104.4,13.8,104.3,13.9,104.1,14z"/>
		<path class="st0" d="M93.2,10.6c0.2-0.7,0.6-1.2,1.3-1.6c1.1-0.7,2.6-0.7,3.6,0.3c0.6,0.6,0.8,1.5,0.8,2.3v6.5h1.1v0.3h-4.5v-0.3
			h1.1v-7.3c0-0.5-0.1-0.9-0.3-1.1c-0.2-0.2-0.5-0.4-0.8-0.4c-1.4,0-2,1.5-2.1,2.6c-0.1,0.5-0.1,1.1-0.1,1.6c0,0.3,0,0.7,0,1
			c0,0.7,0,1.5,0,2.2c0,0.1,0,1.4,0,1.4h1v0.3h-4.5v-0.3h1.1v-7.3c0-0.2,0-0.5-0.1-0.7s-0.1-0.3-0.2-0.5c-0.1-0.1-0.2-0.2-0.3-0.3
			c-0.1-0.1-0.3-0.1-0.4-0.1c-0.3,0-0.6,0.1-0.9,0.2c-0.3,0.2-0.5,0.4-0.7,0.8c-0.2,0.3-0.4,0.7-0.5,1.1c-0.1,0.4-0.2,0.8-0.2,1.2
			v5.6h1.1v0.3h-4.5v-0.3h1.1V9.3h-1.1V8.9c0.5,0,1,0,1.5,0s0.9,0,1.4,0.1c0.3,0.1,0.5,0.4,0.5,0.6c0,0.3,0,0.5,0,0.8
			c0-0.3,0.3-0.7,0.4-0.9c0.4-0.1,0.6-0.4,0.9-0.5c0.8-0.5,1.9-0.5,2.8-0.1C92.5,9.2,93,9.9,93.2,10.6
			C93.2,10.7,93.2,10.6,93.2,10.6z"/>
		<path class="st0" d="M116.6,10.3V3.2H115V2.8c0.7,0,1.3-0.1,2,0c0.5,0,1.3,0.1,1.6,0.5c0.3,0.3,0.3,0.8,0.3,1.1s0,0.5,0,0.8
			c0,0.6,0,1.2,0,1.8c0,1.4,0,2.9,0,4.3c0,1.3,0,2.7,0,4c0,0.8,0,1.6,0,2.4v0.2h1v0.3c-0.4,0-0.7,0-1.1,0c-0.6,0-1.3,0.1-1.7-0.3
			c-0.4-0.4-0.4-0.8-0.5-1.3c0,0.3-0.3,0.8-0.5,1c-0.3,0.3-0.6,0.5-1,0.7c-0.9,0.3-1.9,0.2-2.7-0.1c-1.5-0.5-2.3-2.3-2.4-3.8
			s0.2-3.1,1.1-4.3c0.2-0.3,0.5-0.6,0.8-0.8c0.7-0.5,1.7-0.8,2.6-0.7c0.5,0.1,0.9,0.2,1.3,0.5C116.1,9.5,116.4,9.9,116.6,10.3z
			 M116.6,14.7v-2.2c0-0.6-0.1-1-0.2-1.4s-0.3-0.7-0.5-1c-0.3-0.7-0.7-1-1.3-1.1h-0.2c-1.5,0-1.8,1.9-1.9,3.1
			c-0.1,0.9-0.1,1.7,0,2.6c0.1,0.8,0.2,1.6,0.5,2.3c0.4,0.9,1.5,1.3,2.3,0.8C116.4,17.1,116.6,15.8,116.6,14.7z"/>
		<path class="st0" d="M68.1,14.3c-0.8,0-1.5,0.7-1.5,1.5c0,0.2,0.1,0.5,0.2,0.7c0.1,0.1,0.2,0.3,0.3,0.4c0.2,0.2,0.3,0.3,0.5,0.5
			c0.1,0.1,0.2,0.3,0.1,0.4S67.4,18,67.2,18s-0.3,0-0.5,0l0,0c-0.7,0-1.5-0.2-1.9-0.8c-0.2-0.2-0.3-0.5-0.4-0.7
			c-0.1-0.3-0.2-0.5-0.2-0.8s-0.1-0.6-0.1-0.9c0-0.3,0-0.7,0-1.1c0,0,0,0,0-0.1v-0.1v-0.4h6.2c0-0.8-0.3-1.6-0.7-2.3
			c-0.4-0.7-0.9-1.3-1.6-1.7c-0.6-0.4-1.3-0.6-2.1-0.6c-0.8,0-1.5,0.2-2.2,0.7c-0.7,0.4-1.2,1.1-1.6,1.9c-0.4,0.8-0.6,1.6-0.6,2.5
			s0.2,1.7,0.6,2.5c0.2,0.4,0.4,0.7,0.7,1s0.6,0.6,0.9,0.8c0.3,0.2,0.7,0.4,1,0.4c0.4,0.1,0.8,0.1,1.2,0.2c0.2,0,0.4,0,0.6,0
			c0.6,0,1.3-0.1,1.8-0.5c0.6-0.4,0.8-1,1.1-1.6l0,0c0.1-0.2,0.1-0.4,0.1-0.6C69.6,15,68.9,14.3,68.1,14.3z M64.1,11.8
			c0-0.3,0.1-0.6,0.1-0.8c0-0.3,0.1-0.5,0.2-0.8c0.1-0.2,0.2-0.4,0.3-0.6C65,9.2,65.4,9,65.9,8.9c0.6,0,1,0.2,1.2,0.5
			c0.1,0.1,0.1,0.2,0.2,0.4c0.2,0.4,0.2,0.9,0.3,1.4c0.1,0.5,0.1,1.1,0.2,1.6l0,0c-0.4,0-0.8,0-1.2,0H64C64,12.4,64,12.1,64.1,11.8z
			"/>
		<g>
			<path class="st0" d="M60,21.5h0.4v2.4h1.3v0.3H60V21.5z"/>
			<path class="st0" d="M65.4,21.5v2.7H65v-2.7H65.4z"/>
			<path class="st0" d="M69.5,24.2l-1-2.7h0.4l0.5,1.3c0.1,0.4,0.2,0.7,0.3,1l0,0c0.1-0.3,0.2-0.7,0.3-1l0.5-1.4h0.4l-1.1,2.7h-0.3
				C69.5,24.1,69.5,24.2,69.5,24.2z"/>
			<path class="st0" d="M75.8,22.9h-1.2v1h1.3v0.3h-1.7v-2.7h1.6v0.3h-1.2v0.9h1.2C75.8,22.7,75.8,22.9,75.8,22.9z"/>
			<path class="st0" d="M79.8,23.3l-0.3,0.9h-0.4l1-2.7h0.5l1,2.7h-0.4l-0.3-0.9H79.8z M80.8,23.1l-0.3-0.8
				c-0.1-0.2-0.1-0.3-0.2-0.5l0,0c0,0.2-0.1,0.3-0.2,0.5l-0.3,0.8H80.8z"/>
			<path class="st0" d="M85,21.5c0.2,0,0.4-0.1,0.7-0.1c0.4,0,0.6,0.1,0.8,0.2c0.2,0.1,0.3,0.3,0.3,0.5c0,0.3-0.2,0.5-0.5,0.6l0,0
				c0.3,0.1,0.6,0.3,0.6,0.7c0,0.2-0.1,0.4-0.3,0.5c-0.2,0.2-0.6,0.3-1.1,0.3c-0.3,0-0.5,0-0.6,0L85,21.5L85,21.5z M85.4,22.6h0.4
				c0.4,0,0.7-0.2,0.7-0.5s-0.3-0.4-0.7-0.4c-0.2,0-0.3,0-0.3,0L85.4,22.6L85.4,22.6z M85.4,23.9c0.1,0,0.2,0,0.3,0
				c0.4,0,0.8-0.1,0.8-0.5s-0.4-0.5-0.8-0.5h-0.3V23.9z"/>
			<path class="st0" d="M92.9,22.8c0,0.9-0.6,1.4-1.4,1.4s-1.4-0.6-1.4-1.4c0-0.9,0.6-1.4,1.4-1.4C92.4,21.4,92.9,22,92.9,22.8z
				 M90.6,22.8c0,0.6,0.4,1.1,1,1.1s1-0.5,1-1.1c0-0.5-0.3-1.1-1-1.1C90.9,21.7,90.6,22.2,90.6,22.8z"/>
			<path class="st0" d="M96.8,23.3l-0.3,0.9h-0.4l1-2.7h0.5l1,2.7h-0.4l-0.3-0.9H96.8z M97.8,23.1l-0.3-0.8
				c-0.1-0.2-0.1-0.3-0.2-0.5l0,0c0,0.2-0.1,0.3-0.2,0.5l-0.3,0.8H97.8z"/>
			<path class="st0" d="M102,21.5c0.2,0,0.5-0.1,0.8-0.1c0.4,0,0.7,0.1,0.9,0.2c0.2,0.1,0.2,0.3,0.2,0.5c0,0.4-0.3,0.6-0.6,0.7l0,0
				c0.2,0.1,0.4,0.3,0.4,0.6c0.1,0.4,0.2,0.6,0.2,0.8h-0.4c0-0.1-0.1-0.3-0.2-0.7c-0.1-0.4-0.3-0.5-0.6-0.5h-0.4v1.2h-0.4L102,21.5
				L102,21.5z M102.4,22.7h0.4c0.4,0,0.7-0.2,0.7-0.5c0-0.4-0.3-0.5-0.7-0.5c-0.2,0-0.3,0-0.4,0V22.7z"/>
			<path class="st0" d="M107.3,21.5c0.2,0,0.5-0.1,0.8-0.1c0.6,0,1,0.1,1.2,0.3c0.3,0.2,0.4,0.5,0.4,1c0,0.4-0.2,0.8-0.4,1.1
				c-0.3,0.3-0.8,0.4-1.3,0.4c-0.3,0-0.5,0-0.7,0V21.5z M107.7,23.9c0.1,0,0.2,0,0.4,0c0.8,0,1.3-0.4,1.3-1.2c0-0.6-0.4-1.1-1.2-1.1
				c-0.2,0-0.4,0-0.5,0C107.7,21.6,107.7,23.9,107.7,23.9z"/>
			<path class="st0" d="M112.2,23.8c0.2,0.1,0.4,0.2,0.7,0.2c0.4,0,0.6-0.2,0.6-0.5s-0.2-0.4-0.6-0.5c-0.5-0.2-0.8-0.4-0.8-0.8
				s0.4-0.7,1-0.7c0.3,0,0.5,0.1,0.7,0.1l-0.1,0.3c-0.1,0-0.3-0.1-0.6-0.1c-0.4,0-0.6,0.2-0.6,0.4c0,0.3,0.2,0.4,0.6,0.5
				c0.5,0.2,0.8,0.4,0.8,0.8s-0.3,0.8-1.1,0.8c-0.3,0-0.6-0.1-0.8-0.2L112.2,23.8z"/>
		</g>
	</g>
	<g>
		<path class="st0" d="M43.8,17.3c0.4-0.2,0.7-0.5,1-0.9c1.3-1.4,2.3-3.1,2.4-5.1c0.1-1.5-0.3-3-1.1-4.3c-1.2-1.9-3.1-3.4-5.3-3.8
			c-2.2-0.5-4.6,0-6.4,1.3c-1.3,0.9-2.3,2.3-2.9,3.8s-0.6,3.2-0.2,4.8c-0.5-2.3,0.2-4.9,1.7-6.7c2-2.3,4.9-3,7.7-2.4
			c0.5,0.1,1,0.3,1.5,0.5c1,0.5,1.9,1.2,2.5,2c1.3,1.6,1.9,3.8,1.5,5.9s-1.6,4-3.4,5C43.4,17.5,43.6,17.4,43.8,17.3z"/>
		<path class="st0" d="M37,22.1c-1,0.3-2.3,0.4-3.4,0.5c-1.2,0.1-2.4,0-3.6-0.1c-0.9-0.1-1.8-0.3-2.6-0.5c-1-0.3-1.9-0.6-2.8-0.9
			s-1.9-0.5-3-0.7c-2.4-0.3-5.1-0.2-7.3,0.3c-1.4,0.3-2.7,0.7-3.8,1.2c2.2-0.5,4.8-0.6,7.3-0.4c1.1,0.1,2.1,0.3,3.1,0.5
			c1.6,0.4,2.8,1.1,4.5,1.4c2.2,0.4,4.9,0.3,7.1,0C34.1,23.3,35.7,22.7,37,22.1L37,22.1z"/>
		<path class="st0" d="M41.2,19.9c-1,0.3-2.3,0.4-3.4,0.5c-1.2,0.1-2.5,0.1-3.6-0.1c-0.9-0.1-1.8-0.3-2.6-0.5
			c-1-0.3-1.9-0.6-2.8-0.9s-1.9-0.5-3-0.7c-2.4-0.3-5.1-0.2-7.4,0.3c-1.4,0.3-2.7,0.7-3.8,1.2c2.3-0.5,4.9-0.6,7.3-0.4
			c1.1,0.1,2.1,0.3,3.1,0.6c1.6,0.4,2.9,1.1,4.6,1.4c2.2,0.4,4.9,0.3,7.1,0C38.3,21,39.9,20.5,41.2,19.9L41.2,19.9z"/>
		<path class="st0" d="M44.2,16.8L44.2,16.8c-0.4,0.3-0.8,0.5-1.2,0.7c-0.4,0.2-0.9,0.3-1.4,0.4c-1.5,0.3-3.1,0.1-4.6-0.1
			c-0.3,0-0.5-0.1-0.8-0.1c-1.5-0.3-2.9-0.9-4.4-1.3c-1-0.3-2-0.5-3-0.7c-2.4-0.3-5.2-0.3-7.4,0.4c-1.1,0.3-2.1,0.7-3.2,1.2
			c2.4-0.5,4.8-0.6,7.1-0.3c2,0.2,3.8,0.8,5.7,1.5c1.5,0.5,3.1,0.8,4.7,0.8c1.1,0,2.2,0,3.2-0.2c1.1-0.2,2.2-0.3,3.2-0.7
			c0.4-0.2,0.7-0.3,1.1-0.6c0.2-0.1,0.4-0.3,0.5-0.4s0.2-0.1,0.2-0.2l0.1-0.1C44.3,16.9,44.3,16.9,44.2,16.8
			C44.3,16.9,44.3,16.9,44.2,16.8C44.3,16.8,44.2,16.8,44.2,16.8z"/>
	</g>
</g>
</svg>
